<?xml version="1.0" encoding="UTF-8" standalone="no"?><!-- Generator: Gravit.io --><svg xmlns="http://www.w3.org/2000/svg" xmlns:xlink="http://www.w3.org/1999/xlink" style="isolation:isolate" viewBox="567.967 242 689.033 681.467" width="689.033pt" height="681.467pt"><defs><clipPath id="_clipPath_qAdiWt7Rw7qTj4qfCQztkobH41b1Kwnv"><rect x="567.967" y="242" width="689.033" height="681.467"/></clipPath></defs><g clip-path="url(#_clipPath_qAdiWt7Rw7qTj4qfCQztkobH41b1Kwnv)"><linearGradient id="_lgradient_0" x1="0.1560932676227489" y1="0.8731161374122296" x2="0.9498152999774255" y2="0.08951274686074984" gradientTransform="matrix(689.033,0,0,387.601,567.967,357.906)" gradientUnits="userSpaceOnUse"><stop offset="0%" stop-opacity="1" style="stop-color:rgb(255,208,84)"/><stop offset="66.95016274252863%" stop-opacity="1" style="stop-color:rgb(255,124,86)"/><stop offset="100%" stop-opacity="1" style="stop-color:rgb(225,43,124)"/></linearGradient><path d=" M 1225.541 357.906 C 1208.201 357.906 1194.102 372.014 1194.102 389.355 C 1194.102 393.101 1194.87 396.666 1196.072 399.999 L 1094.34 683.347 C 1092.169 682.872 1089.927 682.589 1087.634 682.589 C 1080.353 682.589 1073.728 685.185 1068.395 689.356 L 1015.824 596.28 C 1013.926 580.717 1000.807 568.568 984.749 568.568 C 967.409 568.568 953.3 582.676 953.3 600.016 C 953.3 602.026 953.523 603.985 953.906 605.894 L 877.092 675.518 C 873.325 673.922 869.184 673.033 864.842 673.033 C 860.126 673.033 855.692 674.154 851.662 676.033 L 767.89 536.191 C 768.203 534.413 768.445 532.616 768.445 530.747 C 768.445 513.407 754.337 499.299 736.997 499.299 C 724.625 499.299 714.001 506.55 708.87 516.972 L 625.977 600.233 C 620.402 591.396 610.616 585.458 599.416 585.458 C 582.076 585.458 567.967 599.567 567.967 616.907 C 567.967 634.247 582.076 648.356 599.416 648.356 C 611.868 648.356 622.573 641.014 627.663 630.48 L 710.325 547.229 C 715.879 556.177 725.706 562.186 736.986 562.186 C 741.188 562.186 745.187 561.328 748.853 559.823 L 833.767 700.715 C 833.605 701.957 833.383 703.2 833.383 704.482 C 833.383 721.822 847.491 735.931 864.832 735.931 C 882.172 735.931 896.281 721.822 896.281 704.482 C 896.281 702.765 896.038 701.109 895.776 699.453 L 973.277 629.233 C 976.852 630.637 980.679 631.475 984.759 631.475 C 992.202 631.475 998.959 628.759 1004.352 624.426 L 1056.519 717.3 C 1058.175 733.085 1071.425 745.507 1087.644 745.507 C 1104.985 745.507 1119.093 731.399 1119.093 714.058 C 1119.093 710.301 1118.326 706.736 1117.104 703.384 L 1218.825 420.066 C 1221.007 420.541 1223.249 420.824 1225.551 420.824 C 1242.902 420.824 1257 406.715 1257 389.375 C 1257 372.025 1242.891 357.906 1225.541 357.906 Z  M 599.416 633.197 C 590.408 633.197 583.116 625.895 583.116 616.897 C 583.116 607.899 590.418 600.597 599.416 600.597 C 608.414 600.597 615.716 607.899 615.716 616.897 C 615.716 625.895 608.414 633.197 599.416 633.197 Z  M 736.986 547.037 C 727.978 547.037 720.686 539.736 720.686 530.737 C 720.686 521.739 727.988 514.437 736.986 514.437 C 745.985 514.437 753.286 521.739 753.286 530.737 C 753.286 539.736 745.985 547.037 736.986 547.037 Z  M 864.832 720.782 C 855.823 720.782 848.532 713.481 848.532 704.492 C 848.532 695.484 855.833 688.182 864.832 688.182 C 873.83 688.182 881.132 695.494 881.132 704.492 C 881.132 713.481 873.83 720.782 864.832 720.782 Z  M 984.759 616.327 C 975.751 616.327 968.459 609.025 968.459 600.027 C 968.459 591.028 975.771 583.726 984.759 583.726 C 993.748 583.726 1001.059 591.028 1001.059 600.027 C 1001.059 609.025 993.758 616.327 984.759 616.327 Z  M 1099.169 725.573 C 1096.219 728.523 1092.144 730.348 1087.644 730.348 C 1078.636 730.348 1071.344 723.037 1071.344 714.048 C 1071.344 705.05 1078.656 697.748 1087.644 697.748 C 1096.633 697.748 1103.945 705.05 1103.945 714.048 C 1103.945 718.547 1102.119 722.622 1099.169 725.573 Z  M 1225.541 405.665 C 1216.533 405.665 1209.251 398.363 1209.251 389.365 C 1209.251 380.366 1216.553 373.065 1225.541 373.065 C 1234.55 373.065 1241.841 380.366 1241.841 389.365 C 1241.841 398.363 1234.55 405.665 1225.541 405.665 Z " fill="url(#_lgradient_0)"/><linearGradient id="_lgradient_1" x1="0.1560932676227489" y1="0.8731161374122296" x2="0.9498152999774255" y2="0.08951274686074984" gradientTransform="matrix(415.763,0,0,681.467,704.602,242)" gradientUnits="userSpaceOnUse"><stop offset="0%" stop-opacity="1" style="stop-color:rgb(255,208,84)"/><stop offset="66.95016274252863%" stop-opacity="1" style="stop-color:rgb(255,124,86)"/><stop offset="100%" stop-opacity="1" style="stop-color:rgb(225,43,124)"/></linearGradient><path d=" M 771.169 883.414 L 762.143 923.467 L 704.602 923.467 L 803.325 478.934 L 746.348 478.37 L 746.348 316.465 L 912.766 242 L 1079.184 316.465 L 1079.184 478.37 L 1022.207 478.934 L 1120.365 923.467 L 1062.824 923.467 L 1053.798 883.414 L 912.766 710.791 L 771.169 883.414 Z  M 794.299 778.486 L 881.174 672.43 L 830.967 611.504 L 794.299 778.486 Z  M 980.461 551.707 L 964.665 478.934 L 860.866 478.934 L 845.07 551.707 L 913.33 635.198 L 980.461 551.707 Z  M 994 611.504 L 943.793 672.43 L 1030.668 778.486 L 994 611.504 Z  M 808.966 420.829 L 1016.565 420.829 L 1016.565 339.03 L 808.966 339.03 L 808.966 420.829 Z " fill="url(#_lgradient_1)"/></g></svg>